<svg xmlns="http://www.w3.org/2000/svg" version="1.1" xmlns:xlink="http://www.w3.org/1999/xlink" xmlns:svgjs="http://svgjs.dev/svgjs" width="2000" height="2970" viewBox="0 0 2000 2970"><g transform="matrix(1,0,0,1,-4.518033977728464,-4.790322580645125)"><svg viewBox="0 0 167 248" data-background-color="#ffffff" preserveAspectRatio="xMidYMid meet" height="2970" width="2000" xmlns="http://www.w3.org/2000/svg" xmlns:xlink="http://www.w3.org/1999/xlink"><g id="tight-bounds" transform="matrix(1,0,0,1,0.37748754713067,0.4000000000000057)"><svg viewBox="0 0 166.24525661572895 247.2" height="247.2" width="166.24525661572895"><g><svg></svg></g><g><svg viewBox="0 0 166.24525661572895 247.2" height="247.2" width="166.24525661572895"><g transform="matrix(1,0,0,1,0,47.215199999999996)"><svg viewBox="0 0 166.24525661572895 152.7696" height="152.7696" width="166.24525661572895"><g><svg viewBox="0 0 244.43135999999998 224.61802432637342" height="152.7696" width="166.24525661572895"><g><svg viewBox="0 0 244.43135999999998 224.61802432637342" height="224.61802432637342" width="244.43135999999998"><g id="textblocktransform"><svg viewBox="0 0 244.43135999999998 224.61802432637342" height="224.61802432637342" width="244.43135999999998" id="textblock"><g><svg viewBox="0 0 244.43135999999998 149.96945336386915" height="149.96945336386915" width="244.43135999999998"><g transform="matrix(1,0,0,1,0,0)"><svg width="244.43135999999998" viewBox="-3.2358800000000025 -18.30279 86.09655010612084 52.824045909079" height="149.96945336386915" data-palette-color="#b6a522"><path d="M25.258-6.673c-1.161 0.346-2.106 0.77-2.835 1.272-0.735 0.498-1.409 1.216-2.025 2.151v0l-4.455 6.777 3.736 2.456c1.655 1.088 3.091 1.773 4.309 2.055 1.215 0.288 2.448 0.397 3.699 0.325v0l0.241 1.164c-3.566 1.493-7.235 1-11.007-1.48v0l-2.757-1.812-5.988 9.108c-1.556 2.368-3.169 4.008-4.839 4.921-1.666 0.908-3.742 1.457-6.23 1.648v0l-0.343-1.625c0.798-0.194 1.585-0.645 2.363-1.355 0.781-0.715 1.437-1.476 1.968-2.284v0l8.723-13.27-4.763-3.131 3.886-1.323 2.657 1.747 2.675-4.07c0.879-1.337 2.124-2.381 3.736-3.133 1.608-0.746 3.308-1.264 5.101-1.553v0l-6.409-4.285c-1.187-0.78-2.352-1.247-3.496-1.401-1.153-0.152-2.43-0.042-3.831 0.33v0l-0.332-1.224c2.775-0.896 5.355-1.295 7.739-1.195 2.393 0.097 4.492 0.739 6.297 1.926v0l7.989 5.252c2.239 1.472 4.411 2.732 6.514 3.779 2.098 1.044 3.853 1.476 5.264 1.295v0l0.133 0.817c-1.979 0.837-4.188 1.212-6.627 1.125-2.443-0.082-4.442-0.634-5.996-1.656v0zM37.593-18.303l-2.118 40.755 0.389 0.02c1.299-4.185 3.078-8.095 5.336-11.728 2.265-3.634 4.866-5.375 7.802-5.223v0c1.192 0.062 2.12 0.577 2.783 1.547 0.657 0.969 0.951 2.122 0.882 3.46v0c-0.118 2.27-1.2 4.397-3.246 6.381-2.046 1.983-4.352 3.656-6.92 5.017v0c0.173 0.269 0.767 1.241 1.781 2.917 1.014 1.675 2.138 3.182 3.37 4.521 1.239 1.333 2.325 2.023 3.257 2.071v0c1.338 0.07 2.579-0.5 3.724-1.709v0l0.849 0.996c-0.885 1.222-2.066 2.176-3.543 2.86-1.471 0.691-2.896 1.001-4.274 0.929v0c-1.598-0.083-3.008-0.754-4.231-2.012-1.223-1.258-2.526-2.968-3.909-5.13v0c-1.1-1.699-1.937-2.808-2.511-3.325v0l-0.52 0.374c-0.304 0.839-0.593 2.092-0.866 3.76-0.273 1.661-0.464 3.143-0.572 4.446v0l-5.208 1.181 2.611-50.242zM45.233 11.374c-1.118-0.058-2.286 0.822-3.502 2.642-1.21 1.826-2.484 4.123-3.823 6.89v0c-0.671 1.347-1.045 2.055-1.122 2.125v0c2.551-0.915 4.879-2.233 6.985-3.953 2.099-1.72 3.196-3.509 3.293-5.366v0c0.025-0.486-0.126-0.988-0.453-1.506-0.327-0.524-0.786-0.802-1.378-0.832zM56.236-12.54c2.147-1.28 4.472-2.002 6.974-2.167 2.504-0.174 4.946 0.245 7.326 1.256v0l-0.995 6.845c-2.14-1.767-4.442-2.913-6.905-3.439-2.458-0.529-4.775-0.146-6.951 1.151v0c-2.084 1.243-3.349 2.8-3.793 4.671-0.444 1.872-0.114 3.735 0.992 5.591v0c1.031 1.729 2.305 2.922 3.822 3.578 1.52 0.662 3.082 0.991 4.687 0.989 1.605-0.002 3.682-0.158 6.23-0.466v0c2.44-0.282 4.403-0.432 5.891-0.45 1.482-0.014 2.915 0.261 4.299 0.825 1.375 0.562 2.511 1.596 3.409 3.102v0c1.691 2.772 2.073 5.45 1.147 8.037-0.929 2.595-2.851 4.761-5.766 6.498v0c-2.142 1.277-4.433 2.068-6.873 2.375-2.446 0.31-4.761-0.057-6.943-1.1v0l1.257-6.407c2.614 1.911 5.025 2.934 7.231 3.07 2.207 0.135 4.047-0.235 5.519-1.113v0c1.38-0.823 2.333-1.899 2.86-3.23 0.532-1.334 0.434-2.611-0.293-3.83v0c-0.669-1.122-1.603-1.901-2.801-2.336-1.192-0.438-2.477-0.646-3.853-0.625-1.38 0.016-3.186 0.149-5.419 0.402v0c-2.85 0.31-5.197 0.448-7.041 0.414-1.841-0.028-3.648-0.437-5.423-1.227-1.765-0.787-3.23-2.157-4.394-4.109v0c-1.222-2.05-1.8-4.236-1.733-6.558 0.071-2.316 0.769-4.51 2.096-6.581 1.326-2.071 3.141-3.793 5.443-5.166z" opacity="1" transform="matrix(1,0,0,1,0,0)" fill="#b6a522" class="wordmark-text-0" data-fill-palette-color="primary" id="text-0"></path></svg></g></svg></g><g transform="matrix(1,0,0,1,42.775487999999996,207.6587021741717)"><svg viewBox="0 0 158.880384 16.95932215220171" height="16.95932215220171" width="158.880384"><g transform="matrix(1,0,0,1,0,0)"><svg width="158.880384" viewBox="2.75 -34.806578371482004 429.56 45.856578371482" height="16.95932215220171" data-palette-color="#b6a522"><path d="M8.2 0.4L4.7 0.4Q4 0.4 3.58-0.2 3.15-0.8 2.95-1.75 2.75-2.7 2.75-3.65L2.75-3.65Q2.75-5.7 3-7.6 3.25-9.5 3.45-11.7L3.45-11.7 5.85-34.75 9.35-34.75Q10.65-34.75 11.08-33.77 11.5-32.8 11.5-31.45L11.5-31.45Q11.5-30.25 11.4-29.3 11.3-28.35 11.13-27 10.95-25.65 10.7-23.3L10.7-23.3 8.2 0.4ZM34.55 0.5L31 0.5Q30.45 0.5 30.17-0.03 29.9-0.55 29.82-1.2 29.75-1.85 29.75-2.25L29.75-2.25Q29.75-2.95 29.85-4.05 29.95-5.15 30.1-6.38 30.25-7.6 30.4-8.5L30.4-8.5 31.25-13.7Q31.4-14.7 31.55-15.58 31.7-16.45 31.7-17.45L31.7-17.45Q31.7-18.2 31.4-18.6 31.1-19 30.6-19L30.6-19Q29.95-19 28.45-17.75 26.95-16.5 25.25-14.18 23.55-11.85 22.17-8.6 20.8-5.35 20.4-1.35L20.4-1.35 19.1-8.75Q20.6-13.1 22.47-16.1 24.35-19.1 26.3-20.95 28.25-22.8 30.07-23.65 31.9-24.5 33.3-24.5L33.3-24.5Q34.8-24.5 35.72-23.95 36.65-23.4 37.07-22.43 37.5-21.45 37.5-20.15L37.5-20.15Q37.5-18.9 37.32-17.68 37.15-16.45 36.95-15.15L36.95-15.15 34.55 0.5ZM16.05 0.7L16.05 0.7Q15.4 0.7 15.07 0.48 14.75 0.25 14.72-0.7 14.7-1.65 14.95-3.75L14.95-3.75 17.3-24.55 20.8-24.55Q21.55-24.55 22.15-23.45 22.75-22.35 22.75-20.95L22.75-20.95Q22.75-20.3 22.37-18.93 22-17.55 21.5-16.03 21-14.5 20.6-13.35L20.6-13.35 19.3-9.25 21.15-9.55 20.35-1.35Q20.3-0.85 19.75-0.45 19.2-0.05 18.45 0.2 17.7 0.45 17.02 0.58 16.35 0.7 16.05 0.7ZM48.7 0.8L48.7 0.8Q46.59 0.8 45.32-0.78 44.05-2.35 43.75-5.35L43.75-5.35 42.65-16.55Q42.55-17.7 42.32-18.88 42.09-20.05 41.75-20.75L41.75-20.75Q41.4-21.45 41.15-21.73 40.9-22 40.9-22.4L40.9-22.4Q40.9-22.8 41.47-23.18 42.05-23.55 42.9-23.88 43.75-24.2 44.59-24.38 45.45-24.55 46-24.55L46-24.55Q46.9-24.55 47.45-23.6 48-22.65 48.3-19.85L48.3-19.85 49.59-7.15Q49.75-5.7 50.12-4.95 50.5-4.2 51.2-4.2L51.2-4.2Q51.75-4.2 52.72-4.9 53.7-5.6 54.72-7.25 55.75-8.9 56.45-11.65 57.15-14.4 57.15-18.5L57.15-18.5Q57.15-19.7 56.82-20.35 56.5-21 56.5-21.5L56.5-21.5Q56.5-21.95 57.05-22.5 57.59-23.05 58.42-23.5 59.25-23.95 60.07-24.25 60.9-24.55 61.4-24.55L61.4-24.55Q62-24.55 62.59-24.2 63.2-23.85 63.2-22.45L63.2-22.45Q63.2-20.05 62.5-16.98 61.8-13.9 60.52-10.8 59.25-7.7 57.45-5.05 55.65-2.4 53.45-0.8 51.25 0.8 48.7 0.8ZM72.49 0.8L72.49 0.8Q68.64 0.8 66.54-1.63 64.44-4.05 64.44-8.3L64.44-8.3Q64.44-11.85 65.44-14.8 66.44-17.75 68.24-19.95 70.04-22.15 72.47-23.35 74.89-24.55 77.74-24.55L77.74-24.55Q81.14-24.55 82.94-23.1 84.74-21.65 84.74-18.95L84.74-18.95Q84.74-16.2 82.92-14.15 81.09-12.1 77.67-10.65 74.24-9.2 69.49-8.2L69.49-8.2 68.84-11.2Q71.59-11.55 73.89-12.4 76.19-13.25 77.59-14.68 78.99-16.1 78.99-18.05L78.99-18.05Q78.99-19.4 78.47-20.1 77.94-20.8 76.59-20.8L76.59-20.8Q74.54-20.8 73.12-19.3 71.69-17.8 70.97-15.4 70.24-13 70.24-10.3L70.24-10.3Q70.24-6.65 71.37-5.43 72.49-4.2 74.69-4.2L74.69-4.2Q76.99-4.2 78.72-4.93 80.44-5.65 81.69-6.45L81.69-6.45Q82.09-6.7 82.39-6.85 82.69-7 82.89-7L82.89-7Q83.14-7 83.29-6.8 83.44-6.6 83.44-6.35L83.44-6.35Q83.44-5.45 82.64-4.25 81.84-3.05 80.37-1.9 78.89-0.75 76.89 0.03 74.89 0.8 72.49 0.8ZM107.19 0.5L103.64 0.5Q103.09 0.5 102.82-0.03 102.54-0.55 102.47-1.2 102.39-1.85 102.39-2.25L102.39-2.25Q102.39-2.95 102.49-4.05 102.59-5.15 102.74-6.38 102.89-7.6 103.04-8.5L103.04-8.5 103.89-13.7Q104.04-14.7 104.19-15.58 104.34-16.45 104.34-17.45L104.34-17.45Q104.34-18.2 104.04-18.6 103.74-19 103.24-19L103.24-19Q102.59-19 101.09-17.75 99.59-16.5 97.89-14.18 96.19-11.85 94.82-8.6 93.44-5.35 93.04-1.35L93.04-1.35 91.74-8.75Q93.24-13.1 95.12-16.1 96.99-19.1 98.94-20.95 100.89-22.8 102.72-23.65 104.54-24.5 105.94-24.5L105.94-24.5Q107.44-24.5 108.37-23.95 109.29-23.4 109.72-22.43 110.14-21.45 110.14-20.15L110.14-20.15Q110.14-18.9 109.97-17.68 109.79-16.45 109.59-15.15L109.59-15.15 107.19 0.5ZM88.69 0.7L88.69 0.7Q88.04 0.7 87.72 0.48 87.39 0.25 87.37-0.7 87.34-1.65 87.59-3.75L87.59-3.75 89.94-24.55 93.44-24.55Q94.19-24.55 94.79-23.45 95.39-22.35 95.39-20.95L95.39-20.95Q95.39-20.3 95.02-18.93 94.64-17.55 94.14-16.03 93.64-14.5 93.24-13.35L93.24-13.35 91.94-9.25 93.79-9.55 92.99-1.35Q92.94-0.85 92.39-0.45 91.84-0.05 91.09 0.2 90.34 0.45 89.67 0.58 88.99 0.7 88.69 0.7ZM118.79 0.8L118.79 0.8Q116.39 0.8 115.41-0.6 114.44-2 114.79-5L114.79-5 116.74-20.25 115.14-20.25Q114.39-20.25 114.39-21.05L114.39-21.05Q114.39-21.55 115.06-22.5 115.74-23.45 116.79-24.6 117.84-25.75 118.96-26.8 120.09-27.85 121.04-28.53 121.99-29.2 122.49-29.2L122.49-29.2Q123.04-29.2 123.24-28.78 123.44-28.35 123.34-27.7L123.34-27.7 122.89-23.75 128.49-23.75Q129.24-23.75 129.36-23.5 129.49-23.25 129.29-22.7L129.29-22.7Q128.69-21 128.16-20.63 127.64-20.25 126.24-20.25L126.24-20.25 122.24-20.25 120.99-9.55Q120.89-8.6 120.81-7.75 120.74-6.9 120.74-6.2L120.74-6.2Q120.74-5.05 121.29-4.58 121.84-4.1 123.09-4.1L123.09-4.1Q124.29-4.1 125.16-4.6 126.04-5.1 126.39-5.1L126.39-5.1Q126.79-5.1 126.79-4.6L126.79-4.6Q126.79-4.1 126.26-3.2 125.74-2.3 124.71-1.38 123.69-0.45 122.19 0.18 120.69 0.8 118.79 0.8ZM138.34 0.75L138.34 0.75Q134.04 0.75 131.66-1.78 129.29-4.3 129.29-9.2L129.29-9.2Q129.29-12.45 130.36-15.23 131.44-18 133.29-20.1 135.14-22.2 137.56-23.38 139.99-24.55 142.69-24.55L142.69-24.55Q146.99-24.55 149.26-22 151.54-19.45 151.54-14.3L151.54-14.3Q151.54-11.2 150.51-8.47 149.49-5.75 147.69-3.68 145.89-1.6 143.49-0.43 141.09 0.75 138.34 0.75ZM139.54-3L139.54-3Q141.44-3 142.81-4.4 144.19-5.8 144.91-8.25 145.64-10.7 145.64-13.75L145.64-13.75Q145.64-17 144.66-18.9 143.69-20.8 141.44-20.8L141.44-20.8Q139.59-20.8 138.16-19.4 136.74-18 135.96-15.58 135.19-13.15 135.19-10.05L135.19-10.05Q135.19-6.6 136.29-4.8 137.39-3 139.54-3ZM159.98-1.2L159.98-1.2 158.78-8.75Q160.63-13.55 162.56-17.07 164.48-20.6 166.48-22.55 168.48-24.5 170.53-24.5L170.53-24.5Q171.68-24.5 172.18-23.78 172.68-23.05 172.68-21.95L172.68-21.95Q172.68-20.95 172.46-20.03 172.23-19.1 171.81-18.5 171.38-17.9 170.78-17.9L170.78-17.9Q170.23-17.9 169.56-18.25 168.88-18.6 167.73-18.6L167.73-18.6Q166.98-18.6 165.83-17.05 164.68-15.5 163.46-12.93 162.23-10.35 161.28-7.28 160.33-4.2 159.98-1.2ZM155.78 0.7L155.78 0.7Q155.13 0.7 154.81 0.48 154.48 0.25 154.46-0.7 154.43-1.65 154.68-3.75L154.68-3.75 157.03-24.55 160.53-24.55Q161.28-24.55 161.88-23.45 162.48-22.35 162.48-20.95L162.48-20.95Q162.48-20.3 162.11-18.93 161.73-17.55 161.23-16.03 160.73-14.5 160.33-13.35L160.33-13.35 159.03-9.25 160.88-9.55 159.98-1.2Q159.93-0.7 159.38-0.33 158.83 0.05 158.11 0.28 157.38 0.5 156.73 0.6 156.08 0.7 155.78 0.7ZM180.38 11.05L180.38 11.05Q178.23 11.05 176.58 10.38 174.93 9.7 173.98 8.2 173.03 6.7 173.03 4.2L173.03 4.2Q173.03 3.7 173.21 3.53 173.38 3.35 173.58 3.35L173.58 3.35Q173.83 3.35 174.18 3.55 174.53 3.75 175.18 4.15L175.18 4.15Q176.08 4.75 177.26 5.43 178.43 6.1 179.78 6.6 181.13 7.1 182.43 7.1L182.43 7.1Q183.73 7.1 184.83 6.28 185.93 5.45 186.91 3.4 187.88 1.35 188.78-2.25L188.78-2.25 191.58-13.65 191.88-13.7Q190.03-8.8 187.61-5.63 185.18-2.45 182.71-0.93 180.23 0.6 178.23 0.6L178.23 0.6Q176.13 0.6 175.13-0.55 174.13-1.7 174.13-3.75L174.13-3.75Q174.13-4.75 174.26-5.95 174.38-7.15 174.68-9.7L174.68-9.7 176.53-24.55 180.03-24.55Q180.88-24.55 181.33-23.58 181.78-22.6 181.78-21.2L181.78-21.2Q181.78-20.2 181.68-19.43 181.58-18.65 181.41-17.68 181.23-16.7 180.93-14.9L180.93-14.9 180.23-10.6Q180.03-9.2 179.91-8.13 179.78-7.05 179.78-6.35L179.78-6.35Q179.78-5.3 180.01-4.78 180.23-4.25 181.03-4.25L181.03-4.25Q181.88-4.25 183.01-5.35 184.13-6.45 185.33-8.2 186.53-9.95 187.56-11.95 188.58-13.95 189.23-15.83 189.88-17.7 189.88-18.95L189.88-18.95Q189.88-19.8 189.73-20.78 189.58-21.75 189.58-22.5L189.58-22.5Q189.58-23.1 190.56-23.58 191.53-24.05 192.76-24.3 193.98-24.55 194.68-24.55L194.68-24.55Q195.38-24.55 195.81-23.9 196.23-23.25 196.23-21.45L196.23-21.45Q196.23-20.6 195.96-18.93 195.68-17.25 195.58-15.8L195.58-15.8 194.33-1.5Q194.03 1.75 192.71 4.13 191.38 6.5 189.38 8.03 187.38 9.55 185.03 10.3 182.68 11.05 180.38 11.05ZM214.23 0.6L214.23 0.6Q213.43 0.6 213.18-0.15 212.93-0.9 212.93-1.95L212.93-1.95Q212.93-3.7 213.13-5.68 213.33-7.65 213.53-9.55L213.53-9.55 216.28-34.75 220.43-34.8Q222.48-34.85 223.25-34.52 224.03-34.2 224.28-33.2L224.28-33.2 231.68-6.15 229.08-6.25 240.63-31.4Q241.28-32.8 243.03-33.77 244.78-34.75 247.28-34.75L247.28-34.75Q248.28-34.75 248.8-34.27 249.33-33.8 249.18-32.45L249.18-32.45 245.78 0.4 241.78 0.4Q241.13 0.4 240.78-0.4 240.43-1.2 240.43-2.65L240.43-2.65Q240.43-4.7 240.55-7.1 240.68-9.5 240.93-11.7L240.93-11.7 242.78-27.5 243.08-27.3 236.53-13.2Q234.53-8.9 233.28-6.38 232.03-3.85 231.25-2.6 230.48-1.35 229.93-0.98 229.38-0.6 228.78-0.6L228.78-0.6Q228.13-0.6 227.7-0.88 227.28-1.15 227.03-2.05L227.03-2.05 219.58-27.55 220.03-27.6 218.63-14.65Q218.18-10.7 218.23-8.35 218.28-6 218.55-4.73 218.83-3.45 219.08-2.75 219.33-2.05 219.33-1.45L219.33-1.45Q219.33-0.9 218.73-0.53 218.13-0.15 217.23 0.1 216.33 0.35 215.5 0.48 214.68 0.6 214.23 0.6ZM256.87 0.8L256.87 0.8Q254.07 0.8 252.87-1.48 251.67-3.75 251.67-7.85L251.67-7.85Q251.67-11.5 252.75-14.55 253.82-17.6 255.67-19.83 257.52-22.05 259.97-23.28 262.42-24.5 265.17-24.5L265.17-24.5Q267.32-24.5 269.1-23.93 270.87-23.35 272.12-22.75L272.12-22.75 270.67-17.5Q269.32-18.4 267.65-19.15 265.97-19.9 264.55-20.33 263.12-20.75 262.42-20.75L262.42-20.75Q261.02-20.75 259.85-19.38 258.67-18 258-15.58 257.32-13.15 257.32-10L257.32-10Q257.32-7.1 257.75-5.6 258.17-4.1 259.12-4.1L259.12-4.1Q259.77-4.1 261.32-5.58 262.87-7.05 265.07-10.5 267.27-13.95 269.72-19.85L269.72-19.85 271.12-15.4Q268.42-9.4 265.97-5.85 263.52-2.3 261.27-0.75 259.02 0.8 256.87 0.8ZM272.32 0.5L268.82 0.5Q267.82 0.5 267.62-0.48 267.42-1.45 267.42-2.55L267.42-2.55Q267.42-3.4 267.65-4.65 267.87-5.9 268.22-7.35 268.57-8.8 268.97-10.2L268.97-10.2 270.07-13.95 268.62-15.25 269.82-22.8Q271.42-23.05 272.65-23.45 273.87-23.85 274.7-24.15 275.52-24.45 275.87-24.45L275.87-24.45Q276.42-24.45 276.42-23.85L276.42-23.85Q276.42-23.6 275.8-21.73 275.17-19.85 274.45-16.95 273.72-14.05 273.37-10.65L273.37-10.65 272.32 0.5ZM283.42 0.8L283.42 0.8Q280.72 0.8 279.55-1.4 278.37-3.6 278.37-7.85L278.37-7.85Q278.37-11.5 279.4-14.55 280.42-17.6 282.27-19.83 284.12-22.05 286.57-23.28 289.02-24.5 291.87-24.5L291.87-24.5Q293.62-24.5 295.35-23.93 297.07-23.35 298.32-22.75L298.32-22.75 296.72-17.85Q295.37-18.75 293.9-19.4 292.42-20.05 291.2-20.4 289.97-20.75 289.32-20.75L289.32-20.75Q287.87-20.75 286.67-19.38 285.47-18 284.75-15.58 284.02-13.15 284.02-10L284.02-10Q284.02-7.1 284.45-5.6 284.87-4.1 285.82-4.1L285.82-4.1Q286.62-4.1 288.3-5.58 289.97-7.05 292.2-10.5 294.42-13.95 296.87-19.85L296.87-19.85 298.32-15.4Q295.67-9.4 293.07-5.85 290.47-2.3 288.05-0.75 285.62 0.8 283.42 0.8ZM300.12 0.5L296.62 0.5Q296.07 0.5 295.67-0.13 295.27-0.75 295.07-1.65 294.87-2.55 294.87-3.3L294.87-3.3Q294.87-4.55 295.3-6.15 295.72-7.75 296.37-10.2L296.37-10.2 297.37-13.95 295.92-15.55 296.47-20.8 297.17-21.65 297.57-34.8 301.47-34.8Q302.22-34.8 302.7-34.15 303.17-33.5 303.4-32.63 303.62-31.75 303.62-30.95L303.62-30.95Q303.62-30.45 303.57-29.83 303.52-29.2 303.37-28.13 303.22-27.05 302.92-25.15L302.92-25.15 301.27-13.65Q300.92-11.25 300.67-8.75 300.42-6.25 300.3-3.9 300.17-1.55 300.12 0.5L300.12 0.5ZM313.77 0.8L313.77 0.8Q309.92 0.8 307.82-1.63 305.72-4.05 305.72-8.3L305.72-8.3Q305.72-11.85 306.72-14.8 307.72-17.75 309.52-19.95 311.32-22.15 313.74-23.35 316.17-24.55 319.02-24.55L319.02-24.55Q322.42-24.55 324.22-23.1 326.02-21.65 326.02-18.95L326.02-18.95Q326.02-16.2 324.19-14.15 322.37-12.1 318.94-10.65 315.52-9.2 310.77-8.2L310.77-8.2 310.12-11.2Q312.87-11.55 315.17-12.4 317.47-13.25 318.87-14.68 320.27-16.1 320.27-18.05L320.27-18.05Q320.27-19.4 319.74-20.1 319.22-20.8 317.87-20.8L317.87-20.8Q315.82-20.8 314.39-19.3 312.97-17.8 312.24-15.4 311.52-13 311.52-10.3L311.52-10.3Q311.52-6.65 312.64-5.43 313.77-4.2 315.97-4.2L315.97-4.2Q318.27-4.2 319.99-4.93 321.72-5.65 322.97-6.45L322.97-6.45Q323.37-6.7 323.67-6.85 323.97-7 324.17-7L324.17-7Q324.42-7 324.57-6.8 324.72-6.6 324.72-6.35L324.72-6.35Q324.72-5.45 323.92-4.25 323.12-3.05 321.64-1.9 320.17-0.75 318.17 0.03 316.17 0.8 313.77 0.8ZM348.11 0.8L348.11 0.8Q344.26 0.8 342.16-1.63 340.06-4.05 340.06-8.3L340.06-8.3Q340.06-11.85 341.06-14.8 342.06-17.75 343.86-19.95 345.66-22.15 348.09-23.35 350.51-24.55 353.36-24.55L353.36-24.55Q356.76-24.55 358.56-23.1 360.36-21.65 360.36-18.95L360.36-18.95Q360.36-16.2 358.54-14.15 356.71-12.1 353.29-10.65 349.86-9.2 345.11-8.2L345.11-8.2 344.46-11.2Q347.21-11.55 349.51-12.4 351.81-13.25 353.21-14.68 354.61-16.1 354.61-18.05L354.61-18.05Q354.61-19.4 354.09-20.1 353.56-20.8 352.21-20.8L352.21-20.8Q350.16-20.8 348.74-19.3 347.31-17.8 346.59-15.4 345.86-13 345.86-10.3L345.86-10.3Q345.86-6.65 346.99-5.43 348.11-4.2 350.31-4.2L350.31-4.2Q352.61-4.2 354.34-4.93 356.06-5.65 357.31-6.45L357.31-6.45Q357.71-6.7 358.01-6.85 358.31-7 358.51-7L358.51-7Q358.76-7 358.91-6.8 359.06-6.6 359.06-6.35L359.06-6.35Q359.06-5.45 358.26-4.25 357.46-3.05 355.99-1.9 354.51-0.75 352.51 0.03 350.51 0.8 348.11 0.8ZM367.56 0.8L367.56 0.8Q364.76 0.8 363.56-1.48 362.36-3.75 362.36-7.85L362.36-7.85Q362.36-11.5 363.44-14.55 364.51-17.6 366.36-19.83 368.21-22.05 370.66-23.28 373.11-24.5 375.86-24.5L375.86-24.5Q378.01-24.5 379.79-23.93 381.56-23.35 382.81-22.75L382.81-22.75 381.36-17.5Q380.01-18.4 378.34-19.15 376.66-19.9 375.24-20.33 373.81-20.75 373.11-20.75L373.11-20.75Q371.71-20.75 370.54-19.38 369.36-18 368.69-15.58 368.01-13.15 368.01-10L368.01-10Q368.01-7.1 368.44-5.6 368.86-4.1 369.81-4.1L369.81-4.1Q370.46-4.1 372.01-5.58 373.56-7.05 375.76-10.5 377.96-13.95 380.41-19.85L380.41-19.85 381.81-15.4Q379.11-9.4 376.66-5.85 374.21-2.3 371.96-0.75 369.71 0.8 367.56 0.8ZM383.01 0.5L379.51 0.5Q378.51 0.5 378.31-0.48 378.11-1.45 378.11-2.55L378.11-2.55Q378.11-3.4 378.34-4.65 378.56-5.9 378.91-7.35 379.26-8.8 379.66-10.2L379.66-10.2 380.76-13.95 379.31-15.25 380.51-22.8Q382.11-23.05 383.34-23.45 384.56-23.85 385.39-24.15 386.21-24.45 386.56-24.45L386.56-24.45Q387.11-24.45 387.11-23.85L387.11-23.85Q387.11-23.6 386.49-21.73 385.86-19.85 385.14-16.95 384.41-14.05 384.06-10.65L384.06-10.65 383.01 0.5ZM396.16 0.8L396.16 0.8Q392.36 0.8 390.18-0.38 388.01-1.55 388.01-3.55L388.01-3.55Q388.01-4.45 388.28-5.23 388.56-6 389.11-6L389.11-6Q389.31-6 389.56-5.9 389.81-5.8 390.51-5.35L390.51-5.35Q391.51-4.7 392.73-4.15 393.96-3.6 395.23-3.28 396.51-2.95 397.61-2.95L397.61-2.95Q399.21-2.95 399.93-3.73 400.66-4.5 400.66-5.8L400.66-5.8Q400.66-6.75 400.08-7.38 399.51-8 398.26-8.8L398.26-8.8 395.16-10.8Q393.21-12.05 391.88-13.48 390.56-14.9 390.56-17.2L390.56-17.2Q390.56-20.45 393.06-22.48 395.56-24.5 400.11-24.5L400.11-24.5Q403.31-24.5 404.81-23.85 406.31-23.2 406.31-21.6L406.31-21.6Q406.31-20.35 405.93-19.5 405.56-18.65 404.91-18.65L404.91-18.65Q404.71-18.65 404.38-18.75 404.06-18.85 403.81-19L403.81-19Q403.41-19.25 402.56-19.7 401.71-20.15 400.66-20.53 399.61-20.9 398.46-20.9L398.46-20.9Q397.31-20.9 396.58-20.23 395.86-19.55 395.86-18.4L395.86-18.4Q395.86-17.45 396.46-16.8 397.06-16.15 398.46-15.45L398.46-15.45 401.71-13.95Q403.76-13 405.03-11.73 406.31-10.45 406.31-7.95L406.31-7.95Q406.31-5 404.88-3.05 403.46-1.1 401.13-0.15 398.81 0.8 396.16 0.8ZM416.46 11.05L416.46 11.05Q414.31 11.05 412.66 10.38 411.01 9.7 410.06 8.2 409.11 6.7 409.11 4.2L409.11 4.2Q409.11 3.7 409.28 3.53 409.46 3.35 409.66 3.35L409.66 3.35Q409.91 3.35 410.26 3.55 410.61 3.75 411.26 4.15L411.26 4.15Q412.16 4.75 413.33 5.43 414.51 6.1 415.86 6.6 417.21 7.1 418.51 7.1L418.51 7.1Q419.81 7.1 420.91 6.28 422.01 5.45 422.98 3.4 423.96 1.35 424.86-2.25L424.86-2.25 427.66-13.65 427.96-13.7Q426.11-8.8 423.68-5.63 421.26-2.45 418.78-0.93 416.31 0.6 414.31 0.6L414.31 0.6Q412.21 0.6 411.21-0.55 410.21-1.7 410.21-3.75L410.21-3.75Q410.21-4.75 410.33-5.95 410.46-7.15 410.76-9.7L410.76-9.7 412.61-24.55 416.11-24.55Q416.96-24.55 417.41-23.58 417.86-22.6 417.86-21.2L417.86-21.2Q417.86-20.2 417.76-19.43 417.66-18.65 417.48-17.68 417.31-16.7 417.01-14.9L417.01-14.9 416.31-10.6Q416.11-9.2 415.98-8.13 415.86-7.05 415.86-6.35L415.86-6.35Q415.86-5.3 416.08-4.78 416.31-4.25 417.11-4.25L417.11-4.25Q417.96-4.25 419.08-5.35 420.21-6.45 421.41-8.2 422.61-9.95 423.63-11.95 424.66-13.95 425.31-15.83 425.96-17.7 425.96-18.95L425.96-18.95Q425.96-19.8 425.81-20.78 425.66-21.75 425.66-22.5L425.66-22.5Q425.66-23.1 426.63-23.58 427.61-24.05 428.83-24.3 430.06-24.55 430.76-24.55L430.76-24.55Q431.46-24.55 431.88-23.9 432.31-23.25 432.31-21.45L432.31-21.45Q432.31-20.6 432.03-18.93 431.76-17.25 431.66-15.8L431.66-15.8 430.41-1.5Q430.11 1.75 428.78 4.13 427.46 6.5 425.46 8.03 423.46 9.55 421.11 10.3 418.76 11.05 416.46 11.05Z" opacity="1" transform="matrix(1,0,0,1,0,0)" fill="#b6a522" class="slogan-text-1" data-fill-palette-color="secondary" id="text-1"></path></svg></g></svg></g></svg></g></svg></g><g></g></svg></g></svg></g><path d="M0 41.215L0 1 166.245 1 166.245 41.215 151.257 41.215 151.257 15.988 14.988 15.988 14.988 41.215 0 41.215M0 205.985L0 246.2 166.245 246.2 166.245 205.985 151.257 205.985 151.257 231.212 14.988 231.212 14.988 205.985 0 205.985" fill="#b6a522" stroke="transparent" data-fill-palette-color="tertiary"></path></svg></g><defs></defs></svg><rect width="166.24525661572895" height="247.2" fill="none" stroke="none" visibility="hidden"></rect></g></svg></g></svg>