<svg xmlns="http://www.w3.org/2000/svg" version="1.1" xmlns:xlink="http://www.w3.org/1999/xlink" xmlns:svgjs="http://svgjs.dev/svgjs" width="2000" height="1940" viewBox="0 0 2000 1940"><g transform="matrix(1,0,0,1,-0.1884017941501952,0.7614973054774055)"><svg viewBox="0 0 338 328" data-background-color="#ffffff" preserveAspectRatio="xMidYMid meet" height="1940" width="2000" xmlns="http://www.w3.org/2000/svg" xmlns:xlink="http://www.w3.org/1999/xlink"><g id="tight-bounds" transform="matrix(1,0,0,1,0.032156770918533084,0.4318167337795842)"><svg viewBox="0 0 337.9360033258701 327.2" height="327.2" width="337.9360033258701"><g><svg viewBox="0 0 395.52 382.9545911839602" height="327.2" width="337.9360033258701"><g transform="matrix(1,0,0,1,0,196.1872395731026)"><svg viewBox="0 0 395.52 186.7673516108576" height="186.7673516108576" width="395.52"><g id="textblocktransform"><svg viewBox="0 0 395.52 186.7673516108576" height="186.7673516108576" width="395.52" id="textblock"><g><svg viewBox="0 0 395.52 122.92169225864899" height="122.92169225864899" width="395.52"><g transform="matrix(1,0,0,1,0,0)"><svg width="395.52" viewBox="0.8081600000000071 -19.13525 170.63828000000004 53.03180199078527" height="122.92169225864899" data-palette-color="#b6a522"><path d="M21.156-10.477c-0.968 0.518-1.733 1.067-2.295 1.646-0.553 0.576-1.016 1.331-1.389 2.266v0l-2.716 6.798 3.752 1.499c1.653 0.66 3.046 1.009 4.181 1.045 1.128 0.034 2.238-0.093 3.329-0.382v0l0.424 0.988c-2.887 1.962-6.222 2.188-10.005 0.677v0l-2.768-1.106-3.653 9.147c-0.95 2.377-2.08 4.119-3.391 5.226-1.319 1.11-3.061 1.975-5.226 2.596v0l-0.591-1.377c0.665-0.316 1.28-0.86 1.847-1.632 0.56-0.774 1.003-1.567 1.327-2.377v0l5.323-13.326-4.783-1.911 3.195-1.879 2.675 1.069 1.628-4.077c0.537-1.343 1.448-2.494 2.736-3.452 1.291-0.949 2.703-1.716 4.236-2.302v0l-6.454-2.632c-1.182-0.472-2.297-0.674-3.345-0.604-1.044 0.078-2.154 0.406-3.333 0.984v0l-0.507-1.021c2.291-1.296 4.502-2.114 6.634-2.455 2.134-0.346 4.105-0.159 5.913 0.564v0l8.023 3.205c2.254 0.9 4.402 1.622 6.447 2.166 2.05 0.546 3.683 0.61 4.898 0.191v0l0.27 0.7c-1.604 1.104-3.491 1.839-5.663 2.207-2.175 0.359-4.046 0.225-5.612-0.401v0zM43.735-19.135l-9.236 35.684 0.339 0.088c1.909-3.465 4.192-6.604 6.847-9.415 2.656-2.811 5.271-3.883 7.847-3.217v0c1.046 0.271 1.772 0.896 2.179 1.876 0.409 0.974 0.462 2.048 0.158 3.223v0c-0.515 1.988-1.857 3.675-4.027 5.062-2.162 1.382-4.506 2.442-7.031 3.18v0c0.101 0.274 0.45 1.242 1.045 2.904 0.594 1.669 1.319 3.206 2.174 4.612 0.855 1.406 1.689 2.214 2.502 2.425v0c1.175 0.304 2.377 0.023 3.607-0.844v0l0.568 1.036c-1.002 0.918-2.216 1.551-3.642 1.898-1.432 0.345-2.752 0.362-3.958 0.05v0c-1.401-0.362-2.527-1.212-3.38-2.549-0.852-1.336-1.694-3.086-2.525-5.25v0c-0.675-1.703-1.219-2.833-1.633-3.387v0l-0.523 0.226c-0.42 0.69-0.903 1.746-1.45 3.168-0.542 1.43-0.976 2.708-1.303 3.836v0l-4.833 0.112 11.392-44.009zM45.133 8.507c-0.975-0.252-2.165 0.318-3.572 1.709-1.401 1.394-2.944 3.194-4.631 5.402v0c-0.835 1.072-1.293 1.631-1.375 1.679v0c2.419-0.352 4.715-1.097 6.89-2.235 2.176-1.145 3.475-2.53 3.896-4.156v0c0.11-0.426 0.067-0.898-0.129-1.417-0.196-0.519-0.556-0.846-1.079-0.982zM70.462-4.241c2.246 0.253 4.315 1.003 6.207 2.249 1.892 1.246 3.419 2.884 4.579 4.914v0l-4.458 4.378c-0.578-2.433-1.608-4.515-3.091-6.245-1.483-1.724-3.361-2.713-5.633-2.969v0c-2.173-0.245-3.932 0.184-5.277 1.287-1.345 1.103-2.127 2.625-2.346 4.566v0c-0.203 1.802 0.062 3.355 0.794 4.658 0.739 1.304 1.686 2.394 2.842 3.269 1.156 0.875 2.734 1.901 4.735 3.079v0c1.906 1.127 3.397 2.09 4.475 2.889 1.077 0.799 1.956 1.78 2.637 2.944 0.688 1.158 0.944 2.521 0.766 4.092v0c-0.295 2.919-1.485 5.056-3.57 6.41-2.086 1.362-4.652 1.871-7.699 1.528v0c-2.239-0.252-4.322-0.936-6.25-2.052-1.921-1.115-3.382-2.645-4.383-4.59v0l4.406-3.921c0.838 2.805 2.012 4.859 3.523 6.163 1.517 1.305 3.044 2.044 4.58 2.216v0c1.438 0.162 2.711-0.09 3.819-0.757 1.109-0.673 1.735-1.646 1.878-2.918v0c0.132-1.173-0.11-2.243-0.725-3.211-0.623-0.962-1.436-1.815-2.439-2.559-0.997-0.736-2.369-1.629-4.116-2.678v0c-2.218-1.33-3.984-2.508-5.297-3.535-1.306-1.033-2.379-2.314-3.22-3.845-0.847-1.538-1.155-3.327-0.925-5.367v0c0.241-2.14 1.021-4.028 2.339-5.664 1.324-1.629 3.029-2.825 5.114-3.59 2.085-0.765 4.33-1.012 6.735-0.741zM88.844-5.194l0.018 13.44 7.02-0.009-1.516 3.232-5.5 0.007 0.023 17.78c0.001 0.507 0.151 0.92 0.452 1.239 0.307 0.313 0.711 0.469 1.21 0.469v0c0.707-0.001 1.682-0.656 2.928-1.964v0l0.711 0.749c-0.638 1.281-1.404 2.235-2.297 2.863-0.893 0.621-1.732 1.009-2.518 1.163-0.793 0.154-1.19 0.162-1.19 0.022v0c0.033 0 0.083-0.007 0.15-0.021 0.067-0.02 0.167-0.03 0.3-0.03v0c-2.96 0.004-4.442-1.694-4.447-5.094v0l-0.022-17.17-3.79 0.005 1.566-3.232 2.22-0.003-0.016-11.62zM108.992 6.233l1.02 0.954c-2.334 1.887-4.111 3.898-5.331 6.031-1.22 2.133-1.683 4.538-1.387 7.215v0c0.166 1.504 0.651 2.983 1.455 4.438 0.804 1.454 1.898 2.611 3.281 3.471 1.383 0.867 2.96 1.203 4.729 1.008v0c1.438-0.159 2.683-0.635 3.736-1.429 1.046-0.793 1.814-1.793 2.305-3 0.497-1.208 0.67-2.499 0.518-3.871v0c-0.173-1.57-0.828-3.125-1.963-4.663-1.135-1.531-2.537-2.782-4.206-3.751-1.663-0.97-3.304-1.433-4.922-1.389v0c0.595-0.743 1.32-1.534 2.173-2.372 0.853-0.839 1.728-1.663 2.624-2.473v0c2.391 0.514 4.375 1.778 5.952 3.79 1.577 2.013 2.511 4.341 2.803 6.985v0c0.258 2.339 0.032 4.641-0.677 6.906-0.716 2.265-1.92 4.176-3.614 5.731-1.692 1.562-3.794 2.481-6.306 2.758v0c-2.008 0.221-3.911-0.068-5.709-0.869-1.799-0.801-3.276-2.003-4.432-3.606-1.162-1.596-1.858-3.434-2.087-5.515v0c-0.402-3.645 0.329-6.925 2.194-9.84 1.865-2.915 4.479-5.085 7.844-6.509zM136.087 7.771c-1.089 1.898-1.86 4.215-2.315 6.952-0.45 2.728-0.424 5.105 0.078 7.131v0c0.438 1.767 1.19 3.15 2.255 4.149 1.065 1 2.446 1.289 4.141 0.869v0c1.372-0.34 2.6-1.026 3.683-2.057 1.077-1.03 1.917-2.227 2.52-3.592v0l-0.724-0.593c-0.839 0.936-1.751 1.526-2.735 1.77v0c-1.534 0.38-2.829 0.128-3.886-0.757-1.051-0.886-1.766-2.097-2.147-3.63v0c-0.616-2.485-0.562-4.995 0.163-7.531 0.723-2.542 1.805-5.101 3.248-7.677v0l-0.955-0.484c-1.928 2.003-3.84 3.239-5.736 3.709v0c-1.113 0.276-2.249 0.029-3.409-0.741-1.166-0.769-2.142-1.698-2.926-2.788v0l-2.866 5.439c0.389 0.597 1.197 1.197 2.425 1.8v0l-1.589 7.678 2.022 0.385 1.443-7.807c0.614 0.095 1.111 0.13 1.489 0.105 0.372-0.024 0.869-0.112 1.49-0.267v0c1.605-0.398 2.988-1.122 4.149-2.172v0zM156.612-6.291c1.694-0.648 3.282-0.731 4.765-0.248 1.481 0.476 2.564 1.61 3.25 3.403v0c0.552 1.445 0.391 3.355-0.485 5.732-0.878 2.37-2.08 4.696-3.605 6.978-1.528 2.276-2.915 3.995-4.163 5.157v0c1.266 0.958 2.496 1.487 3.691 1.586 1.188 0.102 2.461-0.106 3.818-0.625v0c1.507-0.576 2.861-1.533 4.063-2.87 1.199-1.344 2.05-2.815 2.552-4.413v0l0.948 0.772c-0.787 2.571-1.842 4.712-3.164 6.424-1.326 1.721-3.247 3.062-5.763 4.024v0c-1.918 0.733-3.814 0.916-5.689 0.548-1.866-0.364-3.527-1.178-4.981-2.442-1.46-1.262-2.545-2.82-3.255-4.676v0c-0.891-2.329-1.128-4.836-0.713-7.521 0.417-2.679 1.404-5.101 2.959-7.266 1.55-2.163 3.473-3.684 5.772-4.563zM155.294-2.372c-1.382 0.529-2.447 1.439-3.195 2.732-0.754 1.295-1.171 2.753-1.249 4.375-0.088 1.618 0.15 3.165 0.714 4.64v0c0.745 1.949 1.841 3.443 3.288 4.482v0c1.092-1.103 2.174-2.555 3.248-4.358 1.082-1.799 1.888-3.612 2.415-5.441 0.524-1.821 0.564-3.313 0.119-4.478v0c-0.888-2.323-2.668-2.973-5.34-1.952z" opacity="1" transform="matrix(1,0,0,1,0,0)" fill="#b6a522" class="wordmark-text-0" data-fill-palette-color="primary" id="text-0"></path></svg></g></svg></g><g transform="matrix(1,0,0,1,118.31980799999998,170.021132069874)"><svg viewBox="0 0 158.88038400000002 16.746219540983606" height="16.746219540983606" width="158.88038400000002"><g transform="matrix(1,0,0,1,0,0)"><svg width="158.88038400000002" viewBox="2.8 -37.95 475.76 50.150000000000006" height="16.746219540983606" data-palette-color="#b6a522"><path d="M3.05 0.25L3.05 0.25 2.8-2.2 8.5-3.35 6.55-1.4Q6.65-1.85 6.8-2.93 6.95-4 7.1-5.13 7.25-6.25 7.25-6.75L7.25-6.75 7.25-28.5Q7.25-29.05 7.13-30.13 7-31.2 6.83-32.3 6.65-33.4 6.55-33.9L6.55-33.9 8.5-32 2.9-32.9 3.15-35.5Q4.1-35.45 5.25-35.4 6.4-35.35 7.43-35.3 8.45-35.25 8.9-35.25L8.9-35.25Q10.6-35.25 12.28-35.33 13.95-35.4 15.65-35.5L15.65-35.5 15.85-32.65 10.2-32.15 12.1-33.9Q12.05-33.5 11.9-32.35 11.75-31.2 11.65-29.75 11.55-28.3 11.55-27L11.55-27 11.55-8.25Q11.55-6.95 11.65-5.63 11.75-4.3 11.9-3.18 12.05-2.05 12.15-1.4L12.15-1.4 10.2-3.15 16.5-2.65 16.15 0 9.75 0Q8.1 0 6.43 0.08 4.75 0.15 3.05 0.25ZM21.25 0.25L21.25 0.25 21-2.15 26.6-3.3 24.6-1.45Q24.7-1.85 24.87-2.85 25.05-3.85 25.22-4.98 25.4-6.1 25.4-6.7L25.4-6.7 25.4-17.8Q25.4-18.45 25.25-19.58 25.1-20.7 24.9-21.83 24.7-22.95 24.6-23.45L24.6-23.45 26.6-21.15 21.1-22.1 21.35-24.7 27.55-24.7 28.5-23.8 29.2-16.3 28.1-19.2Q28.85-21.1 30.02-22.4 31.2-23.7 32.8-24.4 34.4-25.1 36.3-25.1L36.3-25.1Q39.85-25.1 41.65-23.68 43.45-22.25 44.1-19.65 44.75-17.05 44.75-13.55L44.75-13.55 44.75-8.2Q44.75-6.35 44.92-4.55 45.1-2.75 45.25-1.75L45.25-1.75 43.45-3.1 49.1-2.6 48.75 0 42.35 0Q42.15 0 41.25 0.05 40.35 0.1 39.27 0.15 38.2 0.2 37.35 0.25L37.35 0.25 37.1-2.15 42.1-3.35 40.25-2.2Q40.4-2.7 40.57-3.43 40.75-4.15 40.87-5 41-5.85 41-6.7L41-6.7 41-13.6Q41-15.8 40.6-17.78 40.2-19.75 39.05-21 37.9-22.25 35.7-22.25L35.7-22.25Q32.65-22.25 30.92-19.85 29.2-17.45 29.2-13.75L29.2-13.75 29.2-8.2Q29.2-6.25 29.35-4.2 29.5-2.15 29.65-1.25L29.65-1.25 27.8-3.1 33.45-2.6 33.1 0 26.75 0Q26.25 0 25.3 0.05 24.35 0.1 23.27 0.15 22.2 0.2 21.25 0.25ZM65.1 0L62.05 0 55.45-17.2Q54.85-18.8 54.1-20.3 53.35-21.8 52.6-23.3L52.6-23.3 55-21.5 50.3-22.1 50.55-24.7 61.35-24.7 61.5-22.15 56.75-21.6 57.9-23.35Q58.35-21.8 58.75-20.33 59.15-18.85 59.65-17.45L59.65-17.45 64.7-3.35 63.55-3.3 68.35-17.55Q68.85-18.95 69.12-20.45 69.4-21.95 69.75-23.4L69.75-23.4 71-21.55 65.45-22.35 65.7-24.7 76-24.7 76.15-22.15 71.65-21.65 74-23.35Q73.1-21.3 72.32-19.58 71.55-17.85 70.85-15.95L70.85-15.95 65.1 0ZM89.49 0.5L89.49 0.5Q85.74 0.5 83.19-1.15 80.64-2.8 79.37-5.7 78.09-8.6 78.09-12.25L78.09-12.25Q78.09-15.95 79.24-18.85 80.39-21.75 82.79-23.43 85.19-25.1 88.84-25.1L88.84-25.1Q92.34-25.1 94.39-23.65 96.44-22.2 97.37-19.6 98.29-17 98.29-13.6L98.29-13.6 97.49-12 81.29-12 81.29-14.25 95.74-15.35 94.14-13.6Q94.14-14.25 94.17-14.88 94.19-15.5 94.19-16.25L94.19-16.25Q94.19-18.9 92.84-20.8 91.49-22.7 88.69-22.7L88.69-22.7Q86.84-22.7 85.59-21.78 84.34-20.85 83.64-19.3 82.94-17.75 82.64-15.98 82.34-14.2 82.34-12.45L82.34-12.45Q82.34-10.8 82.74-9.08 83.14-7.35 83.99-5.85 84.84-4.35 86.12-3.45 87.39-2.55 89.19-2.55L89.19-2.55Q91.54-2.55 93.67-3.28 95.79-4 96.89-4.65L96.89-4.65 98.19-2.45Q98.34-2.6 97.84-2.18 97.34-1.75 96.22-1.13 95.09-0.5 93.42 0 91.74 0.5 89.49 0.5ZM102.64 0.25L102.64 0.25 102.39-2.15 107.99-3.3 105.99-1.45Q106.09-1.85 106.27-2.85 106.44-3.85 106.62-4.98 106.79-6.1 106.79-6.7L106.79-6.7 106.79-17.8Q106.79-18.45 106.64-19.58 106.49-20.7 106.29-21.83 106.09-22.95 105.99-23.45L105.99-23.45 107.99-21.15 102.49-22.1 102.74-24.7 108.94-24.7 109.89-23.8 110.59-16.3 109.49-19.2Q110.24-21.1 111.42-22.4 112.59-23.7 114.19-24.4 115.79-25.1 117.69-25.1L117.69-25.1Q121.24-25.1 123.04-23.68 124.84-22.25 125.49-19.65 126.14-17.05 126.14-13.55L126.14-13.55 126.14-8.2Q126.14-6.35 126.32-4.55 126.49-2.75 126.64-1.75L126.64-1.75 124.84-3.1 130.49-2.6 130.14 0 123.74 0Q123.54 0 122.64 0.05 121.74 0.1 120.67 0.15 119.59 0.2 118.74 0.25L118.74 0.25 118.49-2.15 123.49-3.35 121.64-2.2Q121.79-2.7 121.97-3.43 122.14-4.15 122.27-5 122.39-5.85 122.39-6.7L122.39-6.7 122.39-13.6Q122.39-15.8 121.99-17.78 121.59-19.75 120.44-21 119.29-22.25 117.09-22.25L117.09-22.25Q114.04-22.25 112.32-19.85 110.59-17.45 110.59-13.75L110.59-13.75 110.59-8.2Q110.59-6.25 110.74-4.2 110.89-2.15 111.04-1.25L111.04-1.25 109.19-3.1 114.84-2.6 114.49 0 108.14 0Q107.64 0 106.69 0.05 105.74 0.1 104.67 0.15 103.59 0.2 102.64 0.25ZM142.64 0.75L142.64 0.75Q139.29 0.75 138.16-1.05 137.04-2.85 137.04-6.2L137.04-6.2 137.04-23.75 138.64-22.1 132.84-22.1 132.69-24.1Q133.34-24.35 134.29-24.68 135.24-25 136.21-25.35 137.19-25.7 137.79-25.9L137.79-25.9 136.09-24.25Q136.34-24.55 136.76-25.33 137.19-26.1 137.64-27.08 138.09-28.05 138.49-28.85 138.89-29.65 139.04-30L139.04-30 140.84-29.8 140.84-6Q140.84-4.3 141.44-3.35 142.04-2.4 143.74-2.4L143.74-2.4Q144.84-2.4 146.01-2.93 147.19-3.45 148.14-4.3L148.14-4.3 149.49-2.15Q147.69-0.7 145.96 0.03 144.24 0.75 142.64 0.75ZM147.99-22.1L139.99-22.1 139.99-24.7 148.24-24.7 147.99-22.1ZM164.69 0.5L164.69 0.5Q160.89 0.5 158.34-1.15 155.79-2.8 154.51-5.68 153.24-8.55 153.24-12.3L153.24-12.3Q153.24-16.1 154.51-18.98 155.79-21.85 158.34-23.5 160.89-25.15 164.69-25.15L164.69-25.15Q170.39-25.15 173.21-21.63 176.04-18.1 176.04-12.3L176.04-12.3Q176.04-8.55 174.76-5.65 173.49-2.75 170.96-1.13 168.44 0.5 164.69 0.5ZM164.69-2.2L164.69-2.2Q167.39-2.2 168.94-3.7 170.49-5.2 171.11-7.53 171.74-9.85 171.74-12.3L171.74-12.3Q171.74-14.8 171.11-17.13 170.49-19.45 168.94-20.95 167.39-22.45 164.69-22.45L164.69-22.45Q161.99-22.45 160.44-20.98 158.89-19.5 158.21-17.18 157.54-14.85 157.54-12.3L157.54-12.3Q157.54-9.8 158.21-7.48 158.89-5.15 160.44-3.68 161.99-2.2 164.69-2.2ZM180.43 0.25L180.43 0.25 180.18-2.15 185.78-3.3 183.78-1.45Q183.88-1.85 184.06-2.85 184.23-3.85 184.41-4.98 184.58-6.1 184.58-6.7L184.58-6.7 184.58-17.8Q184.58-18.45 184.43-19.58 184.28-20.7 184.08-21.83 183.88-22.95 183.78-23.45L183.78-23.45 185.78-21.15 180.28-22.1 180.53-24.7 186.73-24.7 187.68-23.8 188.38-16.3 186.88-17.9Q187.43-19.25 188.13-20.53 188.83-21.8 189.86-22.85 190.88-23.9 192.41-24.53 193.93-25.15 196.13-25.15L196.13-25.15Q196.98-25.15 197.81-25.03 198.63-24.9 199.43-24.65L199.43-24.65 198.98-16.6 196.13-16.75 196.13-19.35Q196.13-19.6 195.93-20.3 195.73-21 195.46-21.83 195.18-22.65 194.93-23.2L194.93-23.2 197.28-21.9Q196.78-21.85 196.26-21.85 195.73-21.85 195.23-21.85L195.23-21.85Q191.63-21.85 190.01-19.7 188.38-17.55 188.38-14L188.38-14 188.38-8.2Q188.38-6.25 188.53-4.2 188.68-2.15 188.83-1.25L188.83-1.25 186.98-3.1 193.68-2.6 193.38 0 185.93 0Q185.43 0 184.48 0.05 183.53 0.1 182.46 0.15 181.38 0.2 180.43 0.25ZM223.28-15.9L212.93 12.2 209.83 10.95 209.73 10.55Q210.58 9.25 211.23 8.03 211.88 6.8 212.46 5.43 213.03 4.05 213.66 2.35 214.28 0.65 215.08-1.6L215.08-1.6 215.18 1.5 207.28-16.7Q206.58-18.35 205.68-19.95 204.78-21.55 203.88-23.15L203.88-23.15 206.28-21.25 202.28-22.1 202.53-24.7 213.33-24.7 213.48-22.1 208.03-21.55 209.23-23.35Q209.63-21.9 210.03-20.38 210.43-18.85 211.03-17.4L211.03-17.4 216.83-3.35 215.53-3.35 220.63-16.7Q221.23-18.3 221.68-19.98 222.13-21.65 222.53-23.3L222.53-23.3 223.73-21.4 218.28-22.35 218.53-24.7 228.48-24.7 228.63-22.1 224.28-21.45 226.63-23.25Q225.78-21.4 224.88-19.6 223.98-17.8 223.28-15.9L223.28-15.9ZM243.68 0.25L243.68 0.25 243.43-2.2 249.08-3.35 246.83-1.1Q246.88-1.35 247.1-2.08 247.33-2.8 247.58-3.75 247.83-4.7 248.03-5.53 248.23-6.35 248.23-6.75L248.23-6.75 249.53-28.55Q249.58-29.1 249.5-30.2 249.43-31.3 249.33-32.45 249.23-33.6 249.13-34.25L249.13-34.25 251.08-32.05 245.18-32.9 245.43-35.5Q246.38-35.45 247.53-35.4 248.68-35.35 249.7-35.3 250.73-35.25 251.18-35.25L251.18-35.25 254.93-35.25 255.88-34.2Q256.38-32.8 256.93-31.15 257.48-29.5 257.93-28.2 258.38-26.9 258.53-26.45L258.53-26.45 265.93-7 264.68-7 272.18-26.8Q272.38-27.2 272.83-28.45 273.28-29.7 273.85-31.3 274.43-32.9 274.88-34.25L274.88-34.25 275.88-35.25 276.88-35.25Q278.83-35.25 280.85-35.35 282.88-35.45 284.73-35.5L284.73-35.5 284.93-32.65 279.18-32.15 280.93-33.7Q280.88-31.7 280.83-29.7 280.78-27.7 280.83-27L280.83-27 282.28-8.25Q282.33-7.9 282.48-6.98 282.63-6.05 282.85-4.93 283.08-3.8 283.28-2.75 283.48-1.7 283.63-1.1L283.63-1.1 281.53-3.15 287.38-2.65 287.03 0 280.63 0Q280.03 0 278.85 0.05 277.68 0.1 276.38 0.15 275.08 0.2 273.93 0.25L273.93 0.25 273.68-2.2 279.28-3.35 277.23-1.1Q277.33-1.55 277.5-2.68 277.68-3.8 277.8-4.98 277.93-6.15 277.88-6.75L277.88-6.75 276.33-31.15 277.03-31.05 265.33 0 263.73 0 252.03-31.05 252.73-31.15 251.43-8.25Q251.38-7.65 251.43-6.58 251.48-5.5 251.55-4.35 251.63-3.2 251.73-2.3 251.83-1.4 251.88-1.1L251.88-1.1 249.98-3.15 255.78-2.65 255.43 0 249.73 0Q249.23 0 248.18 0.05 247.13 0.1 245.9 0.15 244.68 0.2 243.68 0.25ZM299.32 0.5L299.32 0.5Q295.97 0.5 294.02-1.23 292.07-2.95 292.07-5.85L292.07-5.85Q292.07-8.45 293.75-10.18 295.42-11.9 298.77-12.45L298.77-12.45 307.52-13.9 307.52-11.45 299.37-9.9Q297.87-9.65 297.02-8.75 296.17-7.85 296.17-6.55L296.17-6.55Q296.17-4.65 297.15-3.58 298.12-2.5 299.92-2.5L299.92-2.5Q302.57-2.5 304.55-4.2 306.52-5.9 306.87-8.4L306.87-8.4 306.87-15.45Q306.87-19.05 305.67-20.83 304.47-22.6 302.07-22.6L302.07-22.6Q301.02-22.6 299.82-22.4 298.62-22.2 297.57-21.85 296.52-21.5 295.97-21.1L295.97-21.1 297.52-23.25 296.92-19.5 296.97-17.45 294.07-17.3 293.57-23.95Q295.07-24.35 296.57-24.6 298.07-24.85 299.57-24.98 301.07-25.1 302.57-25.1L302.57-25.1Q307.02-25.1 308.82-22.68 310.62-20.25 310.62-14.35L310.62-14.35 310.62-8.2Q310.62-5.95 310.9-4.28 311.17-2.6 311.37-1.65L311.37-1.65 309.72-3.15 314.62-2.6 314.32 0 308.07 0 307.07-5.65 307.97-5.8Q307.87-4.4 306.65-2.93 305.42-1.45 303.5-0.48 301.57 0.5 299.32 0.5ZM328.22 0.5L328.22 0.5Q323.57 0.5 320.85-2.95 318.12-6.4 318.12-12.4L318.12-12.4Q318.12-18.25 320.9-21.68 323.67-25.1 328.37-25.1L328.37-25.1Q329.62-25.1 330.67-24.98 331.72-24.85 332.97-24.48 334.22-24.1 335.97-23.35L335.97-23.35 335.62-19.75Q333.87-21.15 332.25-21.73 330.62-22.3 328.87-22.3L328.87-22.3Q325.82-22.3 324.05-19.63 322.27-16.95 322.27-12.25L322.27-12.25Q322.27-7.7 323.92-5.05 325.57-2.4 328.32-2.4L328.32-2.4Q331.42-2.4 333.17-4.45 334.92-6.5 334.92-10.15L334.92-10.15 334.92-30.95Q334.92-31.6 334.77-32.65 334.62-33.7 334.42-34.68 334.22-35.65 334.12-36.05L334.12-36.05 336.02-34.4 329.92-35.45 330.17-37.95 335.27-37.8 338.07-37.8 338.97-36.9Q338.92-35.85 338.85-34.45 338.77-33.05 338.72-31.7 338.67-30.35 338.67-29.45L338.67-29.45 338.67-8.15Q338.67-6.2 338.97-4.2 339.27-2.2 339.47-1.35L339.47-1.35 337.52-3.15 342.67-2.6 342.37 0 336.12 0 335.12-5.65 335.47-4.8Q335.52-3.95 334.82-3.03 334.12-2.1 332.97-1.3 331.82-0.5 330.57 0 329.32 0.5 328.22 0.5ZM357.52 0.5L357.52 0.5Q353.77 0.5 351.22-1.15 348.67-2.8 347.39-5.7 346.12-8.6 346.12-12.25L346.12-12.25Q346.12-15.95 347.27-18.85 348.42-21.75 350.82-23.43 353.22-25.1 356.87-25.1L356.87-25.1Q360.37-25.1 362.42-23.65 364.47-22.2 365.39-19.6 366.32-17 366.32-13.6L366.32-13.6 365.52-12 349.32-12 349.32-14.25 363.77-15.35 362.17-13.6Q362.17-14.25 362.19-14.88 362.22-15.5 362.22-16.25L362.22-16.25Q362.22-18.9 360.87-20.8 359.52-22.7 356.72-22.7L356.72-22.7Q354.87-22.7 353.62-21.78 352.37-20.85 351.67-19.3 350.97-17.75 350.67-15.98 350.37-14.2 350.37-12.45L350.37-12.45Q350.37-10.8 350.77-9.08 351.17-7.35 352.02-5.85 352.87-4.35 354.14-3.45 355.42-2.55 357.22-2.55L357.22-2.55Q359.57-2.55 361.69-3.28 363.82-4 364.92-4.65L364.92-4.65 366.22-2.45Q366.37-2.6 365.87-2.18 365.37-1.75 364.24-1.13 363.12-0.5 361.44 0 359.77 0.5 357.52 0.5ZM393.61 0.5L393.61 0.5Q389.86 0.5 387.31-1.15 384.76-2.8 383.49-5.7 382.21-8.6 382.21-12.25L382.21-12.25Q382.21-15.95 383.36-18.85 384.51-21.75 386.91-23.43 389.31-25.1 392.96-25.1L392.96-25.1Q396.46-25.1 398.51-23.65 400.56-22.2 401.49-19.6 402.41-17 402.41-13.6L402.41-13.6 401.61-12 385.41-12 385.41-14.25 399.86-15.35 398.26-13.6Q398.26-14.25 398.29-14.88 398.31-15.5 398.31-16.25L398.31-16.25Q398.31-18.9 396.96-20.8 395.61-22.7 392.81-22.7L392.81-22.7Q390.96-22.7 389.71-21.78 388.46-20.85 387.76-19.3 387.06-17.75 386.76-15.98 386.46-14.2 386.46-12.45L386.46-12.45Q386.46-10.8 386.86-9.08 387.26-7.35 388.11-5.85 388.96-4.35 390.24-3.45 391.51-2.55 393.31-2.55L393.31-2.55Q395.66-2.55 397.79-3.28 399.91-4 401.01-4.65L401.01-4.65 402.31-2.45Q402.46-2.6 401.96-2.18 401.46-1.75 400.34-1.13 399.21-0.5 397.54 0 395.86 0.5 393.61 0.5ZM414.21 0.5L414.21 0.5Q410.86 0.5 408.91-1.23 406.96-2.95 406.96-5.85L406.96-5.85Q406.96-8.45 408.64-10.18 410.31-11.9 413.66-12.45L413.66-12.45 422.41-13.9 422.41-11.45 414.26-9.9Q412.76-9.65 411.91-8.75 411.06-7.85 411.06-6.55L411.06-6.55Q411.06-4.65 412.04-3.58 413.01-2.5 414.81-2.5L414.81-2.5Q417.46-2.5 419.44-4.2 421.41-5.9 421.76-8.4L421.76-8.4 421.76-15.45Q421.76-19.05 420.56-20.83 419.36-22.6 416.96-22.6L416.96-22.6Q415.91-22.6 414.71-22.4 413.51-22.2 412.46-21.85 411.41-21.5 410.86-21.1L410.86-21.1 412.41-23.25 411.81-19.5 411.86-17.45 408.96-17.3 408.46-23.95Q409.96-24.35 411.46-24.6 412.96-24.85 414.46-24.98 415.96-25.1 417.46-25.1L417.46-25.1Q421.91-25.1 423.71-22.68 425.51-20.25 425.51-14.35L425.51-14.35 425.51-8.2Q425.51-5.95 425.79-4.28 426.06-2.6 426.26-1.65L426.26-1.65 424.61-3.15 429.51-2.6 429.21 0 422.96 0 421.96-5.65 422.86-5.8Q422.76-4.4 421.54-2.93 420.31-1.45 418.39-0.48 416.46 0.5 414.21 0.5ZM441.36 0.5L441.36 0.5Q438.31 0.5 436.38-0.28 434.46-1.05 433.61-1.55L433.61-1.55 433.61-8 436.46-8.2 436.46-6.2Q436.46-5.85 436.71-5.05 436.96-4.25 437.36-3.4 437.76-2.55 438.16-1.95L438.16-1.95 436.71-4.1Q437.61-2.8 438.76-2.35 439.91-1.9 441.41-1.9L441.41-1.9Q443.41-1.9 444.61-2.85 445.81-3.8 445.81-5.85L445.81-5.85Q445.81-7.7 444.21-8.78 442.61-9.85 440.51-10.85L440.51-10.85Q439.26-11.45 438.01-12.13 436.76-12.8 435.73-13.68 434.71-14.55 434.08-15.75 433.46-16.95 433.46-18.6L433.46-18.6Q433.46-21.7 435.68-23.43 437.91-25.15 441.16-25.15L441.16-25.15Q442.81-25.15 444.66-24.93 446.51-24.7 448.26-24.3L448.26-24.3 448.21-17.25 445.36-17.4 445.36-19.15Q445.36-19.45 445.08-20.25 444.81-21.05 444.48-21.93 444.16-22.8 443.96-23.3L443.96-23.3 445.66-21.45Q444.41-22.15 443.51-22.4 442.61-22.65 441.21-22.65L441.21-22.65Q439.46-22.65 438.36-21.78 437.26-20.9 437.26-19.3L437.26-19.3Q437.26-17.55 438.86-16.48 440.46-15.4 442.56-14.45L442.56-14.45Q443.86-13.85 445.11-13.15 446.36-12.45 447.41-11.58 448.46-10.7 449.08-9.53 449.71-8.35 449.71-6.75L449.71-6.75Q449.71-2.8 447.46-1.15 445.21 0.5 441.36 0.5ZM473.21-15.9L462.86 12.2 459.76 10.95 459.66 10.55Q460.51 9.25 461.16 8.03 461.81 6.8 462.38 5.43 462.96 4.05 463.58 2.35 464.21 0.65 465.01-1.6L465.01-1.6 465.11 1.5 457.21-16.7Q456.51-18.35 455.61-19.95 454.71-21.55 453.81-23.15L453.81-23.15 456.21-21.25 452.21-22.1 452.46-24.7 463.26-24.7 463.41-22.1 457.96-21.55 459.16-23.35Q459.56-21.9 459.96-20.38 460.36-18.85 460.96-17.4L460.96-17.4 466.76-3.35 465.46-3.35 470.56-16.7Q471.16-18.3 471.61-19.98 472.06-21.65 472.46-23.3L472.46-23.3 473.66-21.4 468.21-22.35 468.46-24.7 478.41-24.7 478.56-22.1 474.21-21.45 476.56-23.25Q475.71-21.4 474.81-19.6 473.91-17.8 473.21-15.9L473.21-15.9Z" opacity="1" transform="matrix(1,0,0,1,0,0)" fill="#b6a522" class="slogan-text-1" data-fill-palette-color="secondary" id="text-1"></path></svg></g></svg></g></svg></g></svg></g><g transform="matrix(1,0,0,1,102.79355002837748,0)"><svg viewBox="0 0 189.93289994324502 186.7673516108576" height="186.7673516108576" width="189.93289994324502"><g><svg xmlns="http://www.w3.org/2000/svg" data-name="OutLine EX" viewBox="2 3 60 59" x="0" y="0" height="186.7673516108576" width="189.93289994324502" class="icon-icon-0" data-fill-palette-color="accent" id="icon-0"><path d="M61 22H35V9H37A1 1 0 0 0 38 8V4A1 1 0 0 0 37 3H3A1 1 0 0 0 2 4V8A1 1 0 0 0 3 9H5V22H3A1 1 0 0 0 2 23V27A1 1 0 0 0 3 28H5V41H3A1 1 0 0 0 2 42V46A1 1 0 0 0 3 47H5V61A1 1 0 0 0 6 62H58A1 1 0 0 0 59 61V28H61A1 1 0 0 0 62 27V23A1 1 0 0 0 61 22M40 26H28V24H40ZM18 24H22V41H18ZM26 26H24V24H26ZM29 43V45H24V43ZM24 47H29V60H24ZM29 41H24V28H29ZM33 22H24V9H33ZM36 7H24V5H36ZM22 5V22H18V5ZM4 5H16V7H4ZM7 9H16V22H7ZM4 24H16V26H4ZM7 28H16V41H7ZM4 43H16V45H4ZM7 47H16V60H7ZM18 60V43H22V60ZM31 46V28H40V60H31ZM42 60V24H46V60ZM57 60H48V28H57ZM60 26H48V24H60Z" fill="#c1c7d7" data-fill-palette-color="accent"></path><path d="M56.293 5.293L54.933 6.653A7.968 7.968 0 1 0 56.1 8.319L57.712 6.707ZM55 12A6.019 6.019 0 1 1 53.52 8.066L49 12.586 46.707 10.293 45.293 11.707 48.293 14.707A1 1 0 0 0 49.707 14.707L54.587 9.827A6 6 0 0 1 55 12" fill="#c1c7d7" data-fill-palette-color="accent"></path></svg></g></svg></g><g></g></svg></g><defs></defs></svg><rect width="337.9360033258701" height="327.2" fill="none" stroke="none" visibility="hidden"></rect></g></svg></g></svg>